<?xml version="1.0" encoding="UTF-8"?>
<svg width="60" height="60" viewBox="0 0 60 60" fill="none" xmlns="http://www.w3.org/2000/svg">
  <circle cx="30" cy="30" r="22" stroke="white" stroke-width="2" />
  <path d="M30 8C36.6304 8 42.9893 10.5286 47.6777 15.2171C52.3661 19.9056 54.8947 26.2696 54.8947 32.9C54.8947 39.5304 52.3661 45.8893 47.6777 50.5777C42.9893 55.2661 36.6304 57.7947 30 57.7947" stroke="white" stroke-width="2" />
  <path d="M30 8C23.3696 8 17.0107 10.5286 12.3223 15.2171C7.63392 19.9056 5.10526 26.2696 5.10526 32.9C5.10526 39.5304 7.63392 45.8893 12.3223 50.5777C17.0107 55.2661 23.3696 57.7947 30 57.7947" stroke="white" stroke-width="2" />
  <path d="M30 20C35.5228 20 40 24.4772 40 30C40 35.5228 35.5228 40 30 40C24.4772 40 20 35.5228 20 30C20 24.4772 24.4772 20 30 20Z" fill="white" fill-opacity="0.3" />
</svg>